REM DIRINDEX 1\2,1\3,1\4,1\5,1\6
REM DIRNAME cjc030,folder01,folder02,folder03,folder04,folder05
TITLE ""
FILE "Disc4Track74.mp3" MP3
  TRACK 01 AUDIO
    TITLE "3:cjc030_08277"
    INDEX 01 00:00:00
  TRACK 02 AUDIO
    TITLE "0:"
    INDEX 01 00:01:07
  TRACK 03 AUDIO
    TITLE "4:cjc030_08278"
    INDEX 01 00:01:15
  TRACK 04 AUDIO
    TITLE "0:"
    INDEX 01 00:03:08
  TRACK 05 AUDIO
    TITLE "5:cjc030_08279"
    INDEX 01 00:03:15
  TRACK 06 AUDIO
    TITLE "0:"
    INDEX 01 00:04:25
  TRACK 07 AUDIO
    TITLE "6:cjc030_08280"
    INDEX 01 00:04:38
  TRACK 08 AUDIO
    TITLE "0:"
    INDEX 01 00:06:16
  TRACK 09 AUDIO
    TITLE "3:cjc030_08281"
    INDEX 01 00:06:67
  TRACK 10 AUDIO
    TITLE "0:"
    INDEX 01 00:08:01
  TRACK 11 AUDIO
    TITLE "4:cjc030_08282"
    INDEX 01 00:08:09
  TRACK 12 AUDIO
    TITLE "0:"
    INDEX 01 00:09:73
  TRACK 13 AUDIO
    TITLE "5:cjc030_08283"
    INDEX 01 00:10:06
  TRACK 14 AUDIO
    TITLE "0:"
    INDEX 01 00:11:17
  TRACK 15 AUDIO
    TITLE "6:cjc030_08284"
    INDEX 01 00:11:31
  TRACK 16 AUDIO
    TITLE "0:"
    INDEX 01 00:15:09
  TRACK 17 AUDIO
    TITLE "3:cjc030_08285"
    INDEX 01 00:15:58
  TRACK 18 AUDIO
    TITLE "0:"
    INDEX 01 00:16:67
  TRACK 19 AUDIO
    TITLE "4:cjc030_08286"
    INDEX 01 00:17:02
  TRACK 20 AUDIO
    TITLE "0:"
    INDEX 01 00:18:13
  TRACK 21 AUDIO
    TITLE "5:cjc030_08287"
    INDEX 01 00:18:25
  TRACK 22 AUDIO
    TITLE "0:"
    INDEX 01 00:19:32
  TRACK 23 AUDIO
    TITLE "6:cjc030_08288"
    INDEX 01 00:19:38
  TRACK 24 AUDIO
    TITLE "0:"
    INDEX 01 00:23:18
  TRACK 25 AUDIO
    TITLE "3:cjc030_08289"
    INDEX 01 00:23:65
  TRACK 26 AUDIO
    TITLE "0:"
    INDEX 01 00:24:71
  TRACK 27 AUDIO
    TITLE "4:cjc030_08290"
    INDEX 01 00:25:05
  TRACK 28 AUDIO
    TITLE "0:"
    INDEX 01 00:26:17
  TRACK 29 AUDIO
    TITLE "5:cjc030_08291"
    INDEX 01 00:26:26
  TRACK 30 AUDIO
    TITLE "0:"
    INDEX 01 00:27:30
  TRACK 31 AUDIO
    TITLE "6:cjc030_08292"
    INDEX 01 00:27:43
  TRACK 32 AUDIO
    TITLE "0:"
    INDEX 01 00:29:11
  TRACK 33 AUDIO
    TITLE "3:cjc030_08293"
    INDEX 01 00:29:62
  TRACK 34 AUDIO
    TITLE "0:"
    INDEX 01 00:30:67
  TRACK 35 AUDIO
    TITLE "4:cjc030_08294"
    INDEX 01 00:31:00
  TRACK 36 AUDIO
    TITLE "0:"
    INDEX 01 00:31:59
  TRACK 37 AUDIO
    TITLE "5:cjc030_08295"
    INDEX 01 00:31:67
  TRACK 38 AUDIO
    TITLE "0:"
    INDEX 01 00:32:72
  TRACK 39 AUDIO
    TITLE "6:cjc030_08296"
    INDEX 01 00:33:11
  TRACK 40 AUDIO
    TITLE "0:"
    INDEX 01 00:37:26
  TRACK 41 AUDIO
    TITLE "3:cjc030_08297"
    INDEX 01 00:38:00
  TRACK 42 AUDIO
    TITLE "0:"
    INDEX 01 00:39:00
  TRACK 43 AUDIO
    TITLE "4:cjc030_08298"
    INDEX 01 00:39:07
  TRACK 44 AUDIO
    TITLE "0:"
    INDEX 01 00:41:00
  TRACK 45 AUDIO
    TITLE "5:cjc030_08299"
    INDEX 01 00:41:10
  TRACK 46 AUDIO
    TITLE "0:"
    INDEX 01 00:42:06
  TRACK 47 AUDIO
    TITLE "6:cjc030_08300"
    INDEX 01 00:42:21
  TRACK 48 AUDIO
    TITLE "0:"
    INDEX 01 00:45:41
  TRACK 49 AUDIO
    TITLE "3:cjc030_08301"
    INDEX 01 00:46:13
  TRACK 50 AUDIO
    TITLE "0:"
    INDEX 01 00:47:21
  TRACK 51 AUDIO
    TITLE "4:cjc030_08302"
    INDEX 01 00:47:28
  TRACK 52 AUDIO
    TITLE "0:"
    INDEX 01 00:50:01
  TRACK 53 AUDIO
    TITLE "5:cjc030_08303"
    INDEX 01 00:50:11
  TRACK 54 AUDIO
    TITLE "0:"
    INDEX 01 00:51:16
  TRACK 55 AUDIO
    TITLE "6:cjc030_08304"
    INDEX 01 00:51:28
  TRACK 56 AUDIO
    TITLE "0:"
    INDEX 01 00:54:38
  TRACK 57 AUDIO
    TITLE "3:cjc030_08305"
    INDEX 01 00:55:10
  TRACK 58 AUDIO
    TITLE "0:"
    INDEX 01 00:56:10
  TRACK 59 AUDIO
    TITLE "4:cjc030_08306"
    INDEX 01 00:56:18
  TRACK 60 AUDIO
    TITLE "0:"
    INDEX 01 00:57:03
  TRACK 61 AUDIO
    TITLE "5:cjc030_08307"
    INDEX 01 00:57:11
  TRACK 62 AUDIO
    TITLE "0:"
    INDEX 01 00:58:11
  TRACK 63 AUDIO
    TITLE "6:cjc030_08308"
    INDEX 01 00:58:24
  TRACK 64 AUDIO
    TITLE "0:"
    INDEX 01 01:00:66
  TRACK 65 AUDIO
    TITLE "3:cjc030_08309"
    INDEX 01 01:01:38
  TRACK 66 AUDIO
    TITLE "0:"
    INDEX 01 01:02:38
  TRACK 67 AUDIO
    TITLE "4:cjc030_08310"
    INDEX 01 01:02:44
  TRACK 68 AUDIO
    TITLE "0:"
    INDEX 01 01:05:17
  TRACK 69 AUDIO
    TITLE "5:cjc030_08311"
    INDEX 01 01:05:26
  TRACK 70 AUDIO
    TITLE "0:"
    INDEX 01 01:06:24
  TRACK 71 AUDIO
    TITLE "6:cjc030_08312"
    INDEX 01 01:06:38
  TRACK 72 AUDIO
    TITLE "0:"
    INDEX 01 01:09:10
  TRACK 73 AUDIO
    TITLE "3:cjc030_08313"
    INDEX 01 01:09:59
  TRACK 74 AUDIO
    TITLE "0:"
    INDEX 01 01:10:53
  TRACK 75 AUDIO
    TITLE "4:cjc030_08314"
    INDEX 01 01:10:61
  TRACK 76 AUDIO
    TITLE "0:"
    INDEX 01 01:12:54
  TRACK 77 AUDIO
    TITLE "5:cjc030_08315"
    INDEX 01 01:12:58
  TRACK 78 AUDIO
    TITLE "0:"
    INDEX 01 01:13:55
  TRACK 79 AUDIO
    TITLE "6:cjc030_08316"
    INDEX 01 01:13:69
  TRACK 80 AUDIO
    TITLE "0:"
    INDEX 01 01:18:70
  TRACK 81 AUDIO
    TITLE "3:cjc030_08317"
    INDEX 01 01:19:44
  TRACK 82 AUDIO
    TITLE "0:"
    INDEX 01 01:20:53
  TRACK 83 AUDIO
    TITLE "4:cjc030_08318"
    INDEX 01 01:20:61
  TRACK 84 AUDIO
    TITLE "0:"
    INDEX 01 01:21:74
  TRACK 85 AUDIO
    TITLE "5:cjc030_08319"
    INDEX 01 01:22:09
  TRACK 86 AUDIO
    TITLE "0:"
    INDEX 01 01:23:16
  TRACK 87 AUDIO
    TITLE "6:cjc030_08320"
    INDEX 01 01:23:30
  TRACK 88 AUDIO
    TITLE "0:"
    INDEX 01 01:28:10
  TRACK 89 AUDIO
    TITLE "3:cjc030_08321"
    INDEX 01 01:28:61
  TRACK 90 AUDIO
    TITLE "0:"
    INDEX 01 01:29:68
  TRACK 91 AUDIO
    TITLE "4:cjc030_08322"
    INDEX 01 01:30:03
  TRACK 92 AUDIO
    TITLE "0:"
    INDEX 01 01:30:73
  TRACK 93 AUDIO
    TITLE "5:cjc030_08323"
    INDEX 01 01:31:08
  TRACK 94 AUDIO
    TITLE "0:"
    INDEX 01 01:32:13
  TRACK 95 AUDIO
    TITLE "6:cjc030_08324"
    INDEX 01 01:32:27
  TRACK 96 AUDIO
    TITLE "0:"
    INDEX 01 01:37:03
  TRACK 97 AUDIO
    TITLE "3:cjc030_08325"
    INDEX 01 01:37:52
  TRACK 98 AUDIO
    TITLE "0:"
    INDEX 01 01:38:57
  TRACK 99 AUDIO
    TITLE "4:cjc030_08326"
    INDEX 01 01:38:67
  TRACK 100 AUDIO
    TITLE "0:"
    INDEX 01 01:41:48
  TRACK 101 AUDIO
    TITLE "5:cjc030_08327"
    INDEX 01 01:41:59
  TRACK 102 AUDIO
    TITLE "0:"
    INDEX 01 01:42:63
  TRACK 103 AUDIO
    TITLE "6:cjc030_08328"
    INDEX 01 01:43:00
  TRACK 104 AUDIO
    TITLE "0:"
    INDEX 01 01:46:45
